/vscmnt/brussel_pixiu_data/_data_brussel/112/vsc11236/PredSimResults/SUBJ09mtu3D/worker7.mot
version=1
nRows=4
nColumns=50
inDegrees=yes
endheader
                time	         pelvis_tilt	         pelvis_list	     pelvis_rotation	           pelvis_tx	           pelvis_ty	           pelvis_tz	       hip_flexion_r	     hip_adduction_r	      hip_rotation_r	        knee_angle_r	       ankle_angle_r	         mtp_angle_r	       hip_flexion_l	     hip_adduction_l	      hip_rotation_l	        knee_angle_l	       ankle_angle_l	         mtp_angle_l	    lumbar_extension	      lumbar_bending	     lumbar_rotation	 ercspn_r/activation	 intobl_r/activation	 extobl_r/activation	    abd_r/activation	    add_r/activation	hamstrings_r/activation	bifemsh_r/activation	glut_max_r/activation	iliopsoas_r/activation	rect_fem_r/activation	  vasti_r/activation	gastroc_r/activation	 soleus_r/activation	tib_ant_r/activation	 ercspn_l/activation	 intobl_l/activation	 extobl_l/activation	    abd_l/activation	    add_l/activation	hamstrings_l/activation	bifemsh_l/activation	glut_max_l/activation	iliopsoas_l/activation	rect_fem_l/activation	  vasti_l/activation	gastroc_l/activation	 soleus_l/activation	tib_ant_l/activation	
          1.88982444	         -4.15791081	          0.91764448	         -8.48709369	          2.34338230	          0.98884618	          0.00292812	        -14.44707493	         -2.60641751	         -5.26535716	         -9.85617000	          3.25879244	         37.31967168	         28.63376276	         -1.74914495	         -9.72054540	         -5.82994087	          3.93108360	          0.25109772	        -13.74906574	          1.24467098	          6.53972214	          0.03532005	          0.01000003	          0.01000006	          0.02593543	          0.01209993	          0.01551641	          0.16023415	          0.01209982	          0.01595169	          0.01000008	          0.01000005	          0.31113618	          0.21857138	          0.01385873	          0.02727999	          0.15761014	          0.02946359	          0.01000002	          0.22146341	          0.06903696	          0.13345315	          0.09094086	          0.14360036	          0.01209986	          0.01000002	          0.01464103	          0.01000003	          0.33496352	
          1.90242327	         -4.17670713	          1.03163895	         -8.46653954	          2.36357092	          0.98657926	          0.00223222	        -15.14162914	         -2.94762833	         -5.72491658	        -10.54592238	          2.05903542	         38.90202299	         28.61055399	         -1.59776587	         -9.79986043	         -7.77088213	          3.46940579	          0.21099978	        -13.24942479	          0.80072506	          6.70781469	          0.02919064	          0.01000001	          0.01000009	          0.02143459	          0.01000014	          0.01282374	          0.13242710	          0.01000004	          0.01318357	          0.01000007	          0.01000007	          0.28033280	          0.19578071	          0.01145368	          0.02254583	          0.13025842	          0.02435046	          0.07997650	          0.18693597	          0.06813903	          0.11029365	          0.12393145	          0.11867990	          0.01000006	          0.01000004	          0.01210026	          0.01209980	          0.37947117	
          1.91502210	         -4.17814324	          1.15276038	         -8.40990076	          2.38400292	          0.98465715	          0.00144919	        -15.63470748	         -3.31802749	         -6.20463964	        -11.63064622	          0.73663389	         40.40120193	         28.49387230	         -1.43080523	         -9.87377354	         -9.59521742	          2.89248543	          0.20173515	        -12.73861311	          0.34895054	          6.84409955	          0.03714206	          0.01000000	          0.01000001	          0.01771482	          0.01000002	          0.01059834	          0.10944568	          0.01000000	          0.04687273	          0.01000011	          0.01000007	          0.23168377	          0.16724104	          0.00999999	          0.02034063	          0.10765332	          0.02012468	          0.13575992	          0.20962475	          0.05631425	          0.09115326	          0.16133234	          0.09808414	          0.01000002	          0.01000001	          0.01000038	          0.01000000	          0.42792308	
          1.92762093	         -4.16379264	          1.27198918	         -8.31938082	          2.40432751	          0.98328369	          0.00056545	        -15.81028601	         -3.71958273	         -6.69444635	        -13.28069064	         -0.66190399	         41.65830542	         28.43268678	         -1.26371087	         -9.94756645	        -11.53365526	          2.34143457	          0.16558186	        -12.25853042	         -0.10073660	          6.94764889	          0.09099799	          0.01000001	          0.01000001	          0.01464059	          0.04049808	          0.01064069	          0.09045246	          0.01000001	          0.03873891	          0.01000006	          0.01000031	          0.19147728	          0.13821797	          0.01000000	          0.03344309	          0.08897112	          0.01663223	          0.18904142	          0.25766605	          0.05280876	          0.07533450	          0.16931596	          0.08106258	          0.01000004	          0.07071063	          0.01000006	          0.01000006	          0.44500766	
